<svg id="Layer_2" data-name="Layer 2" xmlns="http://www.w3.org/2000/svg" viewBox="0 0 53.49 47.63"><defs><style>.cls-1{fill:#61dafb;}</style></defs><title>React-icon</title><path class="cls-1" d="M54.24,27.51c0-3.55-4.43-6.91-11.24-9,1.57-6.93.88-12.45-2.2-14.22a4.83,4.83,0,0,0-2.44-.61V6.13a2.47,2.47,0,0,1,1.24.28c1.48.85,2.13,4.09,1.63,8.25-.12,1-.32,2.11-.56,3.21a51.6,51.6,0,0,0-6.92-1.19,52,52,0,0,0-4.54-5.45c3.56-3.31,6.89-5.12,9.16-5.12V3.68h0c-3,0-6.92,2.14-10.89,5.85-4-3.69-7.9-5.8-10.89-5.8V6.16c2.25,0,5.6,1.8,9.15,5.08a51.67,51.67,0,0,0-4.5,5.44,49.65,49.65,0,0,0-6.93,1.2c-.25-1.09-.44-2.15-.57-3.16-.51-4.17.12-7.41,1.59-8.27a2.5,2.5,0,0,1,1.26-.28V3.74h0a4.82,4.82,0,0,0-2.47.61C11.06,6.11,10.37,11.62,12,18.53,5.17,20.63.76,24,.76,27.51s4.43,6.9,11.24,9c-1.57,6.93-.88,12.45,2.2,14.22a4.84,4.84,0,0,0,2.45.61c3,0,6.93-2.14,10.89-5.85,4,3.69,7.9,5.8,10.9,5.8a4.81,4.81,0,0,0,2.46-.61c3.06-1.76,3.75-7.27,2.17-14.18C49.83,34.4,54.24,31,54.24,27.51ZM40.05,20.23c-.4,1.41-.91,2.86-1.47,4.31-.45-.87-.92-1.74-1.43-2.62s-1-1.72-1.57-2.55C37.13,19.6,38.62,19.88,40.05,20.23Zm-5,11.61Q33.78,34.06,32.43,36c-1.63.14-3.27.22-4.93.22s-3.29-.08-4.91-.21q-1.35-2-2.63-4.14t-2.27-4.34c.67-1.46,1.44-2.92,2.25-4.35s1.73-2.87,2.63-4.17c1.63-.14,3.27-.21,4.93-.21s3.29.07,4.91.2Q33.76,21,35,23.16c.83,1.42,1.59,2.87,2.27,4.33C36.63,29,35.87,30.42,35.06,31.84Zm3.52-1.41a44.77,44.77,0,0,1,1.5,4.34c-1.43.35-2.93.64-4.49.87.53-.84,1.07-1.7,1.57-2.59S38.13,31.3,38.58,30.43ZM27.52,42.06a45,45,0,0,1-3-3.49c1,0,2,.08,3,.08s2,0,3-.08A42.76,42.76,0,0,1,27.52,42.06Zm-8.11-6.42c-1.55-.23-3-.51-4.47-.86.4-1.41.91-2.86,1.47-4.31.45.87.92,1.75,1.43,2.62S18.88,34.81,19.41,35.64ZM27.47,13a45,45,0,0,1,3,3.49c-1,0-2-.08-3-.08s-2,0-3,.08A40.89,40.89,0,0,1,27.47,13ZM19.4,19.37c-.53.84-1.07,1.7-1.57,2.59s-1,1.74-1.42,2.61a44.77,44.77,0,0,1-1.5-4.34C16.34,19.9,17.84,19.6,19.4,19.37ZM9.53,33c-3.86-1.64-6.35-3.8-6.35-5.51S5.67,23.62,9.53,22c.94-.4,2-.76,3-1.1A51.76,51.76,0,0,0,15,27.53a50.34,50.34,0,0,0-2.42,6.6A29.56,29.56,0,0,1,9.53,33ZM15.4,48.6c-1.48-.85-2.13-4.09-1.63-8.25.12-1,.32-2.11.56-3.21a51.6,51.6,0,0,0,6.92,1.19,52,52,0,0,0,4.54,5.45c-3.56,3.31-6.89,5.12-9.16,5.12A2.54,2.54,0,0,1,15.4,48.6Zm25.86-8.31c.51,4.17-.12,7.41-1.59,8.27a2.5,2.5,0,0,1-1.26.28c-2.25,0-5.6-1.8-9.15-5.08a51.67,51.67,0,0,0,4.5-5.44,49.65,49.65,0,0,0,6.93-1.2A30.87,30.87,0,0,1,41.26,40.29ZM45.46,33a30.53,30.53,0,0,1-3,1.1A51.76,51.76,0,0,0,40,27.48a50.34,50.34,0,0,0,2.42-6.6c1.08.33,2.11.71,3.07,1.11,3.86,1.65,6.35,3.8,6.35,5.52S49.32,31.39,45.46,33Z" transform="translate(-0.76 -3.68)"/><path class="cls-1" d="M16.58,3.73Z" transform="translate(-0.76 -3.68)"/><circle class="cls-1" cx="26.73" cy="23.82" r="4.98"/><path class="cls-1" d="M38.35,3.69Z" transform="translate(-0.76 -3.68)"/></svg>