<svg id="Calque_1" data-name="Calque 1" xmlns="http://www.w3.org/2000/svg" viewBox="0 0 300 300"><defs><style>.cls-1{isolation:isolate;}.cls-2{fill:#fff;}.cls-3{fill:none;stroke:#fff;stroke-miterlimit:10;stroke-width:2px;}</style></defs><title>logo</title><g class="cls-1"><path class="cls-2" d="M106.84082,51.70752l42.52539,122.99072h.6875L192.92285,51.70752H236.71V218.59961h-33.4707V168.85254l3.21-73.70264-.68848-.11426-44.70312,123.564H138.5918L94.11719,95.49365l-.6875.11524,3.20947,73.24365v49.74707H63.169V51.70752Z"/></g><g class="cls-1"><path class="cls-2" d="M85.00146,245.91211a10.7711,10.7711,0,0,1-3.39453,7.26367,11.22673,11.22673,0,0,1-7.66552,2.51758,10.598,10.598,0,0,1-5.91211-1.67188,10.89589,10.89589,0,0,1-3.97217-4.73535,16.86778,16.86778,0,0,1-1.42383-7.00586v-3.89941a17.0236,17.0236,0,0,1,1.40332-7.09863,10.7873,10.7873,0,0,1,4.03418-4.77735,10.999,10.999,0,0,1,6.05615-1.68164,10.75669,10.75669,0,0,1,7.62451,2.60059,10.89145,10.89145,0,0,1,3.25,7.20117H82.44287q-.95-7.65528-8.31592-7.65527a7.87916,7.87916,0,0,0-6.51025,3.05664q-2.425,3.05567-2.42481,8.44531v3.67578a13.34953,13.34953,0,0,0,2.3628,8.30176,7.61079,7.61079,0,0,0,6.38672,3.09766q3.98217,0,6.00439-1.90821a9.15167,9.15167,0,0,0,2.49707-5.72656Z"/><path class="cls-2" d="M105.53223,255.28027a11.6799,11.6799,0,0,1-.47461-3.11621,8.59537,8.59537,0,0,1-3.312,2.61035,10.14013,10.14013,0,0,1-4.26075.919,7.48311,7.48311,0,0,1-5.21045-1.7959,5.84633,5.84633,0,0,1-1.99121-4.53906,5.97576,5.97576,0,0,1,2.71338-5.15918q2.71362-1.89844,7.5625-1.89844h4.478V239.7627a4.89157,4.89157,0,0,0-1.47559-3.76563,6.09661,6.09661,0,0,0-4.30224-1.37207,6.736,6.736,0,0,0-4.27149,1.32031,3.9244,3.9244,0,0,0-1.69189,3.17774l-2.47608-.02051a5.74059,5.74059,0,0,1,2.47608-4.61133,9.5303,9.5303,0,0,1,6.0874-1.95019,8.69607,8.69607,0,0,1,5.89111,1.86718,6.70143,6.70143,0,0,1,2.21827,5.21v10.56543a13.10517,13.10517,0,0,0,.68066,4.84864v.248Zm-7.75879-1.77441a8.2899,8.2899,0,0,0,4.42627-1.19727,7.03909,7.03909,0,0,0,2.8374-3.19824v-4.91113h-4.416a11.07808,11.07808,0,0,0-5.77783,1.35156,4.05779,4.05779,0,0,0-2.084,3.60059,3.99176,3.99176,0,0,0,1.39306,3.11621A5.24758,5.24758,0,0,0,97.77344,253.50586Z"/><path class="cls-2" d="M128.2915,249.60547a3.518,3.518,0,0,0-1.47558-2.9502,11.3771,11.3771,0,0,0-4.44678-1.74414,20.005,20.005,0,0,1-4.61182-1.44433,6.13911,6.13911,0,0,1-2.43457-1.99121,4.967,4.967,0,0,1-.79443-2.84766,5.31118,5.31118,0,0,1,2.20752-4.36426,8.92,8.92,0,0,1,5.6543-1.72265,9.17742,9.17742,0,0,1,5.99414,1.84668,5.92733,5.92733,0,0,1,2.25976,4.81835h-2.47656a3.99964,3.99964,0,0,0-1.64014-3.26074,7.40669,7.40669,0,0,0-8.04785-.21679,3.344,3.344,0,0,0-1.4751,2.81738,3.04272,3.04272,0,0,0,1.22754,2.58887,12.978,12.978,0,0,0,4.478,1.68164,21.06463,21.06463,0,0,1,4.86963,1.63086,6.30552,6.30552,0,0,1,2.40381,2.084,5.73109,5.73109,0,0,1-1.49561,7.46973,9.74428,9.74428,0,0,1-5.95361,1.69238,10.00021,10.00021,0,0,1-6.32422-1.88867,5.81089,5.81089,0,0,1-2.4248-4.77637h2.47607a4.29234,4.29234,0,0,0,1.82617,3.373,7.46528,7.46528,0,0,0,4.44678,1.207,7.016,7.016,0,0,0,4.16846-1.13477A3.40456,3.40456,0,0,0,128.2915,249.60547Z"/><path class="cls-2" d="M141.00146,227.2373v5.71583h4.62208v2.02246h-4.62208v14.89453a4.66236,4.66236,0,0,0,.67042,2.76758,2.59865,2.59865,0,0,0,2.23925.90918,15.3275,15.3275,0,0,0,2.00147-.20606l.103,2.00488a8.077,8.077,0,0,1-2.64112.34766,4.4048,4.4048,0,0,1-3.69385-1.47559,6.94454,6.94454,0,0,1-1.15527-4.34375V234.97559H134.419v-2.02246h4.10644V227.2373Z"/><path class="cls-2" d="M160.23242,255.69336A9.6922,9.6922,0,0,1,155.084,254.29a9.56129,9.56129,0,0,1-3.58007-3.91016,12.19144,12.19144,0,0,1-1.2793-5.623v-.8877a13.1412,13.1412,0,0,1,1.248-5.79785,9.9247,9.9247,0,0,1,3.47754-4.05469,8.57683,8.57683,0,0,1,4.82812-1.47558,8.06031,8.06031,0,0,1,6.44824,2.77539,11.25632,11.25632,0,0,1,2.38379,7.583v1.38282H152.67969v.47461a9.3429,9.3429,0,0,0,2.17773,6.32421,6.9235,6.9235,0,0,0,5.47852,2.52735,8.04357,8.04357,0,0,0,3.49707-.72168,7.74859,7.74859,0,0,0,2.75488-2.31152l1.54785,1.17675A9.00873,9.00873,0,0,1,160.23242,255.69336Zm-.4541-21.04785a6.171,6.171,0,0,0-4.69434,2.043,9.4369,9.4369,0,0,0-2.32128,5.48828h13.3916v-.26758a8.19053,8.19053,0,0,0-1.83594-5.24121A5.69151,5.69151,0,0,0,159.77832,234.64551Z"/><path class="cls-2" d="M177.02832,255.28027h-2.47656V223.585h2.47656Z"/><path class="cls-2" d="M187.34473,255.28027h-2.47657V223.585h2.47657Z"/><path class="cls-2" d="M193.53418,243.78711a13.14253,13.14253,0,0,1,1.24805-5.79883,9.37838,9.37838,0,0,1,8.69824-5.44726,9.18522,9.18522,0,0,1,7.22168,3.126,12.04473,12.04473,0,0,1,2.76562,8.28516v.51562a13.25528,13.25528,0,0,1-1.249,5.82911A9.31849,9.31849,0,0,1,208.7002,254.29a9.64332,9.64332,0,0,1-5.17872,1.40332,9.18908,9.18908,0,0,1-7.21191-3.127,12.01547,12.01547,0,0,1-2.77539-8.28418Zm2.47656.68066A10.12935,10.12935,0,0,0,198.084,251.04a7.01734,7.01734,0,0,0,10.85352,0,10.46411,10.46411,0,0,0,2.07422-6.77832v-.47461a11.35891,11.35891,0,0,0-.94922-4.68457,7.62832,7.62832,0,0,0-2.66211-3.291,6.79892,6.79892,0,0,0-3.91992-1.166,6.59662,6.59662,0,0,0-5.38574,2.58984,10.48036,10.48036,0,0,0-2.084,6.77832Z"/><path class="cls-2" d="M221.76172,232.95313l.082,3.81738a8.87115,8.87115,0,0,1,3.13672-3.14649,8.15731,8.15731,0,0,1,4.14746-1.083,6.70029,6.70029,0,0,1,5.34473,2.02148q1.75341,2.02295,1.77441,6.06738v14.65039H233.792V240.60938a6.831,6.831,0,0,0-1.26953-4.458,4.9717,4.9717,0,0,0-3.99316-1.46485,6.2485,6.2485,0,0,0-4.05469,1.43457,8.4003,8.4003,0,0,0-2.60938,3.86914v15.29h-2.45605V232.95313Z"/></g><rect class="cls-3" x="22.76" y="22.76" width="254.47001" height="254.47001"/></svg>